<?xml version="1.0" standalone="no"?>
<!DOCTYPE svg PUBLIC "-//W3C//DTD SVG 20010904//EN"
 "http://www.w3.org/TR/2001/REC-SVG-20010904/DTD/svg10.dtd">
<svg version="1.0" xmlns="http://www.w3.org/2000/svg"
 width="225.000000pt" height="225.000000pt" viewBox="0 0 225.000000 225.000000"
 preserveAspectRatio="xMidYMid meet">

<g transform="translate(0.000000,225.000000) scale(0.100000,-0.100000)"
fill="#000000" stroke="none">
<path d="M1063 1568 c-12 -13 -23 -32 -25 -43 -2 -12 -13 -21 -26 -23 -29 -4
-52 -39 -52 -78 0 -33 20 -57 59 -72 l23 -8 -25 -29 c-21 -25 -33 -29 -90 -33
-94 -6 -107 1 -68 37 22 20 31 38 31 60 0 35 -30 71 -60 71 -10 0 -33 13 -50
30 -29 28 -75 48 -86 37 -3 -3 -1 -28 4 -55 5 -28 5 -57 1 -64 -17 -25 -9 -59
20 -86 25 -24 28 -34 29 -91 1 -42 7 -67 16 -75 8 -6 16 -20 18 -31 4 -23 -4
-23 195 -5 116 11 165 11 280 0 193 -18 187 -18 191 5 2 11 10 25 18 31 10 8
15 33 16 78 1 61 3 68 29 87 29 21 38 59 20 87 -4 7 -4 36 1 64 5 27 7 52 4
55 -10 11 -56 -8 -78 -32 -13 -13 -41 -30 -63 -37 -28 -9 -42 -21 -49 -40 -13
-36 2 -80 32 -93 41 -18 16 -30 -62 -30 -74 0 -79 2 -103 30 l-26 29 31 8 c31
8 62 49 62 81 0 23 -40 67 -60 67 -12 0 -22 12 -30 35 -19 58 -88 76 -127 33z
m79 -335 c24 -21 23 -38 -4 -57 -15 -11 -26 -12 -40 -5 -23 12 -24 55 0 68 23
14 23 14 44 -6z m-187 -33 c0 -16 -6 -26 -18 -28 -19 -4 -32 20 -23 44 9 25
41 13 41 -16z m369 15 c8 -21 -3 -45 -20 -45 -18 0 -28 24 -20 45 3 8 12 15
20 15 7 0 16 -7 20 -15z m-528 -20 c4 -8 3 -23 0 -32 -6 -15 -8 -15 -23 -1
-16 17 -12 48 7 48 6 0 13 -7 16 -15z m672 -13 c2 -14 -2 -22 -12 -22 -19 0
-29 17 -22 36 8 22 30 12 34 -14z"/>
<path d="M885 991 c-28 -6 -28 -7 -7 -13 21 -6 22 -11 22 -112 0 -89 -3 -106
-17 -115 -26 -14 -14 -17 37 -10 25 3 37 7 28 7 -21 2 -25 19 -33 137 -4 57
-3 86 3 80 5 -5 31 -58 58 -117 26 -59 51 -104 55 -100 4 4 27 56 51 117 l43
109 3 -104 c2 -90 0 -107 -15 -117 -14 -11 -8 -13 41 -13 53 0 56 1 41 16 -16
17 -18 45 -8 166 4 51 9 68 21 71 10 3 -6 5 -34 6 l-52 1 -38 -90 c-21 -49
-40 -87 -42 -85 -3 2 -21 42 -41 87 -39 89 -48 95 -116 79z"/>
<path d="M1293 988 c-30 -14 -44 -59 -30 -89 7 -12 32 -34 56 -48 24 -15 49
-34 55 -44 17 -27 -4 -52 -45 -52 -29 0 -36 5 -49 32 -20 43 -30 41 -30 -5 0
-28 4 -38 18 -40 9 -1 36 -5 59 -8 36 -5 45 -2 67 20 18 17 26 36 26 59 0 38
-15 54 -77 86 -42 21 -49 33 -37 65 10 25 60 20 82 -9 26 -32 32 -32 32 4 0
24 -5 29 -31 35 -43 8 -70 7 -96 -6z"/>
<path d="M715 980 c-19 -8 -19 -9 2 -9 19 -1 22 -8 27 -53 17 -168 17 -167 -1
-177 -14 -8 -4 -10 40 -11 31 0 57 4 57 10 0 6 -6 10 -14 10 -10 0 -15 26 -21
107 -6 96 -5 108 11 120 16 11 12 13 -32 12 -27 0 -58 -4 -69 -9z"/>
<path d="M1534 961 c-48 -29 -64 -59 -64 -119 0 -48 4 -58 33 -87 90 -90 247
-33 247 89 0 107 -124 173 -216 117z m111 -7 c25 -10 45 -59 45 -113 0 -83
-60 -133 -119 -101 -33 17 -54 95 -39 146 17 61 60 88 113 68z"/>
<path d="M478 963 c-27 -2 -48 -8 -48 -14 0 -5 7 -9 15 -9 8 0 15 -3 15 -7 1
-5 7 -54 14 -111 11 -92 11 -104 -3 -112 -12 -7 -9 -9 14 -9 35 2 97 16 74 18
-18 1 -29 29 -29 74 0 42 26 33 66 -23 33 -45 40 -50 75 -50 21 0 39 5 39 10
0 6 -6 10 -13 10 -8 0 -32 22 -54 48 l-41 48 24 21 c31 28 32 76 2 97 -22 16
-46 17 -150 9z m104 -22 c4 -3 10 -18 13 -33 5 -21 1 -33 -19 -53 -15 -15 -32
-25 -39 -22 -13 4 -22 89 -13 114 6 14 41 10 58 -6z"/>
<path d="M1790 953 c0 -3 10 -13 21 -22 22 -17 22 -18 6 -111 -10 -59 -22 -99
-31 -106 -21 -15 -10 -24 31 -24 31 0 33 2 19 15 -9 10 -14 27 -11 43 2 15 7
53 10 85 4 31 9 57 13 57 4 -1 37 -51 73 -113 37 -61 71 -113 77 -115 6 -2 16
23 22 55 22 109 43 175 59 181 12 5 10 8 -9 13 -14 4 -36 7 -50 8 -23 0 -23
-1 -6 -10 16 -10 17 -19 12 -71 -13 -109 -16 -109 -74 -11 -29 48 -56 94 -60
100 -8 12 -102 36 -102 26z"/>
<path d="M370 943 c0 -7 -13 -9 -39 -6 -79 11 -153 -39 -167 -111 -9 -49 25
-120 67 -141 48 -25 122 -16 159 20 41 39 38 49 -6 20 -63 -43 -122 -26 -150
41 -50 121 39 203 132 122 l37 -32 -8 34 c-8 37 -24 73 -25 53z"/>
</g>
</svg>
